<svg xmlns="http://www.w3.org/2000/svg" xmlns:xlink="http://www.w3.org/1999/xlink" viewBox="0 0 1080 1080"><defs><style>.cls-1{fill:none;}.cls-2{isolation:isolate;}.cls-3{clip-path:url(#clip-path);}.cls-4{fill:#303030;opacity:0.25;mix-blend-mode:multiply;}.cls-5{fill:#020201;}.cls-6{fill:#faf8f7;}.cls-7{fill:#fd4d65;}.cls-8{fill:#eade70;}.cls-9{fill:#be374a;}.cls-10{fill:#020101;}.cls-11{fill:#afa652;}.cls-12{fill:#010000;}.cls-13{fill:#bd3649;}.cls-14{fill:#bd3749;}.cls-15{fill:#fcce8e;}.cls-16{fill:#0172c7;}.cls-17{fill:#afa753;}.cls-18{fill:#ecdb34;}.cls-19{fill:#005494;}.cls-20{fill:#c89a6d;}.cls-21{fill:#c89a6c;}.cls-22{fill:#b1a325;}.cls-23{fill:#afa752;}.cls-24{fill:#0571c6;}.cls-25{fill:#e9dd6f;}.cls-26{fill:#005394;}.cls-27{fill:#0d0b07;}.cls-28{fill:#b0a223;}.cls-29{fill:#151a10;}.cls-30{fill:#c59b6a;}.cls-31{fill:#010100;}.cls-32{fill:#aea652;}.cls-33{fill:#0d0b02;}.cls-34{fill:#aca351;}.cls-35{fill:#191807;}.cls-36{fill:#030201;}.cls-37{fill:#c79a6c;}.cls-38{fill:#010101;}.cls-39{fill:#fa4e64;}.cls-40{fill:#0b0303;}.cls-41{fill:#0b0302;}.cls-42{fill:#070502;}.cls-43{fill:#f8f5f4;}.cls-44{fill:#140d08;}.cls-45{fill:#0b0602;}.cls-46{fill:#21180d;}.cls-47{fill:#1e140a;}.cls-48{fill:#0d0d03;}.cls-49{fill:#b2a425;}.cls-50{fill:#0288b0;}.cls-51{fill:#eeecec;}.cls-52{fill:#fbfaf9;}.cls-53{fill:#100404;}.cls-54{fill:#0080a6;}.cls-55{fill:#e0dfde;}.cls-56{fill:#ececec;}</style><clipPath id="clip-path"><rect class="cls-1" x="-8.5" y="6.16" width="1097" height="1073.84"/></clipPath></defs><title>etusivu-hahmo</title><g class="cls-2"><g id="Lager_1" data-name="Lager 1"><g class="cls-3"><path class="cls-4" d="M1005.08,765.94c-9.66-17.79-21.41-34.51-33.06-51.14-7.29-10.4-20.27-18.68-23.18-29.87-4.59-17.64-12-33.7-18.89-50.18-2.65-6.33-6.94-10.57-14.18-11-3.9-.25-5.94,1.63-7,4.76a1.43,1.43,0,0,1-2.31.61c-6.5-5.92-12.91-11.61-19.11-17.52-15.38-14.67-30.22-29.92-49.7-39.51-28.8-14.17-54.88-32.29-74.7-57.77-22.64-29.1-40.54-63.63-83.57-66.35a1.41,1.41,0,0,1-1.19-2c8.73-19.5,4-38.11-11.21-44.23a1.43,1.43,0,0,1-.89-1.16c-1.26-10.68-6.81-18-17.36-21a1.42,1.42,0,0,1-1-1.68c4.11-18.38,2.21-36.3-21.39-44.36a1.41,1.41,0,0,1-.6-2.28c18.2-20.06,16.84-50.72-8.2-59a1.41,1.41,0,0,1-1-1.45c.82-8.43-3.53-15.71-6.48-23.43-.78-2-.64-4.49-.7-6.76-.33-13,7.21-22.56,14.29-32.38,17.57-24.38,23-50.67,11.75-79.35-2-5.11-4.86-9.63-9.8-12.48h0c-.58-1.77-.47-5,1.11-6.36h0C635,105.22,639.88,91.61,637,79c-6.08-26.53-26.18-38-50.1-43.71-26.27-6.22-52.48-5.4-77.15,6.46-8.41-4.94-21.72-7.35-38.16-5.44-32,3.72-51.72,25.54-54.93,51.22h0a3,3,0,0,0-1.24.66c-.14-.42-.52-.62-1.18-.26-24.55,15.29-29.39,39-27.77,64.88L374.31,160h0c-5,3.21-10.54,7.62-12,16,4.23-7.35,10.1-9,10.1-9-13.29,19-12.68,50.05,1.1,73.79a21.75,21.75,0,0,0,4.91,5.72c.89.65,1.94,1.06,2.83,1.71a.35.35,0,0,0,0-.08l.68.57h-4.26a6.29,6.29,0,0,0-2,.33c-40.43,13.53-57.81,44-45.37,80.6,2.55,7.48,6.95,14.34,10.62,21.74-4.67,19.92-12.27,23.93-24.77,12.22l-.36.73c.09.6.16,1.05.22,1.47a1.4,1.4,0,0,0-1.53.7c-9.27,17.29-6.18,33.7,8.15,46.73a1.42,1.42,0,0,1-.17,2.21c-11.82,8.31-17.84,19.79-17.71,34.48.11,13.54,3.77,25.25,15.44,33.39a1.42,1.42,0,0,1-.62,2.6c-14,1.47-25.15,10-37.78,14.38-16.27,5.59-32.55,11.42-46.89,21.52-24.21,17.06-42.23,40-60.47,62.79-9.5,11.84-20.58,22.68-26.26,37.15-1.67,4.25-3.9,7.37-7.85,9.54-9.69,5.34-14.77,13.57-15.26,24.34a1.41,1.41,0,0,1-.38.91c-23.81,25-46,51-64.94,79.4a1.42,1.42,0,0,1-2.34,0c-4.09-5.88-8-11.87-12.44-17.5-3-3.86-7.43-5.47-12.37-3.72s-8.74,4.51-9.74,10c-2.91,16-3.35,32.2-3,48.45.14,7.63,1.71,16.27-1.18,22.73-9.65,21.53-12.44,43.93-12.2,67,.13,12.24,6.07,21,16.87,26.78,22,11.83,45.55,19.21,69.21,26.67,33.67,10.62,67.43,20.57,102.43,26.1q48.41,7.64,96,19.76c8.26,2.11,15.48,4.37,20.78,11.4,5.1,6.76,10.61,13.21,16.48,20.45a1.4,1.4,0,0,1,.28,1.21c-3.82,17.48,8.68,25.92,20.87,34.33a1.42,1.42,0,0,1,.43,1.87c-9,15.8-18.83,31-24,48.77A1.42,1.42,0,0,0,327,1082h7.33a1.39,1.39,0,0,0,.57-.12.5.5,0,0,0,0,.12h22.77l362.44,0c.06-.09.1-.19.15-.28a1.43,1.43,0,0,0,.83.28h1.4a1.43,1.43,0,0,0,1.34-1.9,208.39,208.39,0,0,0-12.21-28.34c-4.74-8.88-12-18.53-.59-28,13.73-11.48,22.6-26.58,31.61-41.68,4.38-7.34,7.54-16.62,15.63-20.25,12.49-5.59,23.38-13.61,35.06-20.39,41.3-24,85.78-42.47,124.16-71.42,27-20.37,55.68-38.71,78.93-63.79C1007.42,794.34,1013.05,780.6,1005.08,765.94Zm-872,60.32c1.55-5.11,5.43-8.18,8.39-11.87,11.24-14,22.54-26.83,41.91-31.08,11-2.41,19.68-11.64,21.71-24.41.59-3.68,3.21-5.75,6.18-7.09,30-13.54,54.3-35.06,79.23-55.72a12.47,12.47,0,0,1,3.56-2.22,1.43,1.43,0,0,1,1.82,1c22.21,77.93,46.83,153.52,99.34,217.26a1.42,1.42,0,0,1-1.16,2.32c-20.25-1.06-39.75,2.48-59.18,2.29-10.26-.1-21.46-5.25-32.23-8.14-21.92-5.9-44.62-9.91-64.72-21-34.2-18.8-67.92-38.47-101.83-57.8a16,16,0,0,1-2.61-2.13A1.36,1.36,0,0,1,133.08,826.26Zm528,84.1c3.17-9.51,6.84-18.8,10.89-28,8.93-20.18,16.57-40.77,17.32-63.21a10,10,0,0,1,4.08-8c12.12-9.39,22.48-20.48,32.38-32.16,13.81-16.33,21.36-35.13,24.14-56.09.44-3.27,0-6.26-2-8.62h0c-1.34-2.06-2.78-4.58-3.7-6.23-4.84-8.65-8.28-17.66-11.57-27.06-.38-1.07-1.12-2.15-1.07-3.33a9.59,9.59,0,0,0,2.94,1.68c8.65,2.78,15.6,8,21.63,14.53a46,46,0,0,0,5.29,5c8.09,6.42,17.28,9.64,26.89,6.38,5.6-1.9,9.23-.76,13,3.35A50.28,50.28,0,0,0,829,724.42a8.56,8.56,0,0,1,4,1.57,1.36,1.36,0,0,1,.37.45c.87,1.65,1,3.71,1.42,5.66.43,1.77.76,3.62,2.38,4.72,6.59,4.45,11.31,10.92,17.26,16,5.29,4.55,10.16,10.46,18.44,8a1.44,1.44,0,0,1,1.56.59c4,5.75,10.55,8.59,14.7,13.66a1.45,1.45,0,0,1,.2,1.45,18.14,18.14,0,0,1-4,5.68c-5.82,6.46-9.44,12-15.49,18.26-.73.77-2.92,3-5.42,5.48a1.45,1.45,0,0,0-.4.76c-3.4,3.52-7,7.06-10.63,10.27-27.41,24.06-53,50-79.07,75.48-9.73,9.55-22.94,25.12-30.07,25.82l.07,0-.26,0c-17.94,1.23-35.9,2.21-53.56,5.75-9.19,1.84-18.3,4.24-24.87,11.79-.19.23-.6.15-1.45-.17C661,927.72,658,919.53,661.09,910.36Z"/><path class="cls-5" d="M563.75,571.08s4.83,9,29.53,6.47C593.28,577.55,570.74,585.37,563.75,571.08Z"/><path class="cls-6" d="M570.74,575a7.34,7.34,0,0,0,6.58,1S574.94,578.1,570.74,575Z"/><path class="cls-7" d="M755.77,1082l-367.91,0c3.41-13,8.11-25.62,15.07-37.17,5-8.23,13.28-13.41,20.18-19.86a88.82,88.82,0,0,0,9-9.26,14,14,0,0,0,3.47-9.1c5-9.15,10.75-17.92,15.09-27.44,5.25-11.56,9.6-23.37,8.67-36.41.45-3.17-.84-5.64-2.59-8.26a344.49,344.49,0,0,0-27.91-36.23c-4.15-4.7-6.8-10.62-10-16-5.56-9.47-12.08-18.29-18-27.52-1.08-1.69-3.38-3.82-.26-5.91,2.47.08,3.79,1.83,5,3.61,2.52,3.75,5.86,6.64,9.2,9.62,3.76,3.36,7.64,4.32,12.28,2.51,3.78-.93,4.78-3.88,5-7.19a40.56,40.56,0,0,0-1.07-13.87c-4.32-15.73-6.82-31.92-12.15-47.38-2.44-7.06-.95-14.56-2.95-21.7a71.53,71.53,0,0,0-5.71-14.87c-9.09-16.82-14.68-34.94-19.56-53.31-1.54-5.79-3.34-11.51-4.91-17.29a41.74,41.74,0,0,1-.34-21.2c1.77-7.29-.38-14.27-2.5-21.05a78.32,78.32,0,0,0-6.37-14.08c-7.67-14-15.33-28.08-22.25-42.45-5.44-11.3-10.5-22.86-9.26-36.24.86-9.36-2.46-18.33-8.37-25.6-7-8.65-13.15-18-20.22-26.57-1.65-2-4.36-3.2-4.82-6.17,1.16-2.1,3.84-1.94,5.22-3.65a66.06,66.06,0,0,1,30.51-11.43c4.93-.5,9-3.29,13.46-5.18,6.16-2.63,12.39-4.82,19.1-5.36,4.92-.4,9.21.54,12.19,5.06a163,163,0,0,0,10.32,13.49c5.59,6.79,8.42,14.55,10.21,23,3.69,17.44,8.1,34.56,17.05,50.36,6.54,11.56,10.36,24.51,17.07,36.1,3.05,5.27,7.1,9.65,10.62,14.47a121.83,121.83,0,0,1,17.19,34.2c.42,1.27.78,2.55,1.3,3.78,3.39,7.94,6.36,9.2,14.21,6,19-7.86,38.81-10.84,59.2-7.72,15.51,2.37,30.08-.87,44.6-5.6,9.51-3.1,18.57-7.35,28-10.74,10.08-3.64,20.51-5.24,31.18-6.28a187.49,187.49,0,0,0,35.52-7.37c2.54-.23,3.21-2.07,3.5-4.16a16.49,16.49,0,0,0-.41-6.92c-7.08-24.42-12.05-49.42-20.15-73.55q-.31-.94-.72-1.86a16.48,16.48,0,0,1-1.11-2.88,35.84,35.84,0,0,0-4.24-12.17C660.1,507,657,495.84,652,485.49c-6.45-13.5-13.29-26.75-22.37-38.72-1.38-1.82-3.24-3.5-2.35-6.2,5.92-5.15,12.93-5.36,20.19-4.51,7.45.88,14.89,1.36,22.27-.49,4.76-1.19,8.48.42,10.21,5.5,4.62,13.55,12.52,25.32,19.8,37.42,6.72,11.17,9.68,23.74,13,36.06,3.69,13.66,8.12,27,13.06,40.25a109.92,109.92,0,0,1,3.93,12.35,120.93,120.93,0,0,0,10.41,27.44c5.84,11.18,7.75,23.7,11.15,35.68,3.45,12.17,6,24.58,10.82,36.35,3,11.06,8,21.28,13,31.51,2.62,5.44,5.25,10.7,3.81,17-1.39,4.74-2.47,9.56-4.11,14.23A76.42,76.42,0,0,1,765.4,744C753.88,759,742,773.53,727,785.25c-3.56,2.78-7.09,5.61-11.22,7.44-4.74,2.12-6.95,5.86-8.1,10.67-2,8.31-2.67,16.8-3.19,25.25A231,231,0,0,1,693.7,885.9c-3.3,10.17-6.53,20.3-6.43,31.15,0,1.84,0,3.67.83,5.37,6.1,16.73,14.57,32.4,22,48.5,8.48,18.26,16.76,36.57,24.13,55.3,4.68,11.91,10.68,23.23,15.77,35,2.39,5.51,3.76,11.35,5.8,17A4.19,4.19,0,0,1,755.77,1082Z"/><path d="M1045,761.17c-9.82-18.06-21.74-35-33.57-51.91-7.4-10.56-20.57-19-23.53-30.32C983.27,661,975.77,644.73,968.76,628c-2.69-6.43-7-10.73-14.39-11.2-4-.26-6,1.66-7.14,4.83a1.45,1.45,0,0,1-2.34.62c-6.61-6-13.11-11.78-19.4-17.79-15.62-14.89-30.68-30.37-50.45-40.1-29.24-14.38-55.71-32.78-75.83-58.65-23-29.53-41.15-64.58-84.83-67.34a1.43,1.43,0,0,1-1.21-2c8.87-19.8,4-38.69-11.37-44.9a1.47,1.47,0,0,1-.91-1.18C699.61,379.45,694,372,683.26,369a1.43,1.43,0,0,1-1-1.7c4.17-18.66,2.25-36.85-21.71-45a1.43,1.43,0,0,1-.61-2.32c18.48-20.35,17.09-51.47-8.32-59.86a1.44,1.44,0,0,1-1-1.48c.83-8.55-3.58-15.94-6.57-23.78-.8-2.07-.65-4.56-.71-6.86-.34-13.23,7.31-22.9,14.5-32.87,17.83-24.75,23.3-51.43,11.93-80.54-2-5.2-4.94-9.79-10-12.68a1.47,1.47,0,0,0-1.4.08,1.41,1.41,0,0,0-.11,2.08c4.17,4.67,5.9,10.85,7.61,17,4.86,15.63,4.1,30.9-.24,45.92a1.45,1.45,0,0,1-2.84-.47c.06-1.13.14-2.27.24-3.41a116.18,116.18,0,0,0-1.26-32.3c-.68-3.5-1-7.38-4.44-9.62a1.34,1.34,0,0,0-1.1-.18c-1.15.32-1.41,1.37-1.61,2.47a1.51,1.51,0,0,0,0,.52c2.56,13.39,3.08,26.94,2.62,40.51-.33,9.88-1.62,19.64-7,28.31-5.61,9.08-8.8,19.07-10.55,29.45-.93,5.53-1.69,11.52.76,16.78,6.52,14,4,27.17-2.29,40.38-4.11,8.62-9.3,16.55-14.53,24.47-15,22.75-31.3,44.39-53.38,61-6.72,5-13.63,9.16-22.47,7.51a91.1,91.1,0,0,1-18.27-5c-13.27-5.49-24.23-14.51-35.68-22.8-4.2-3-8.13-6.55-12.92-9a1.45,1.45,0,0,0-2.09,1.32c.14,4.46,4,7.95,24.25,24.88l.12.1c17.22,11.55,34.42,23.14,54.18,30.1,3.51,1.23,5.19,3.76,5.87,7.35a74,74,0,0,0,8.12,22.87c5,8.94,10.14,17.94,12.22,28.2,2.6,11.66,5.33,23.3,8.81,34.72a134.08,134.08,0,0,1,5.77,42.61.61.61,0,0,0,0,.14c.79,7.5-.29,14.88-1.53,22.23-3.36,19.85-6.3,39.74-5.46,60,0,1.38.07,2.76.06,4.29a1.44,1.44,0,0,1-2.68.72c-5.89-9.81-11.86-18.67-19-26.68-3.87-4.32-8.39-8.05-11.69-12.88l-.06-.09a82.91,82.91,0,0,1-14.73-24.71c-6-15.79-16.94-28.25-28.82-39.72-19.63-18.94-35-41-48.6-64.39-6-10.4-9.57-21.81-9.4-34.27.18-13.34,2.45-26.52,2.2-39.89-.3-16-.14-32-.05-48,.07-11.62-.52-23.14-3.71-34a1.46,1.46,0,0,1-.06-.46c.1-2,1.77-3.28,1.51-5.11a1.37,1.37,0,0,0-.19-.51c-.89-1.47-2.55-1.63-4-2.06A15.81,15.81,0,0,1,444.2,278c-14.3-16.18-20.73-34.67-15.71-56.2,1.65-7.09,7.48-9.07,13.72-5.18a5.57,5.57,0,0,0,3.18,1.27c2-.4,2.24-1.66,1.62-3.35-1.26-3.39-8.79-8.49-12.8-8.64-4.46-.18-7.69,2.25-10,7.58-1.17,2.69-1.95,5.54-3,8.51a1.46,1.46,0,0,1-2.46.46c-2.82-3.14-3.95-6.86-4.88-10.55a1.47,1.47,0,0,1,1.72-1.82,4.79,4.79,0,0,0,1.24.12,1.45,1.45,0,0,0,1.41-1.5c-.27-4.18-3.74-7.49-3.76-11.73,0-3.43-.28-6.86,0-10.48a1.45,1.45,0,0,1,2.71-.6,17.82,17.82,0,0,0,3.94,5.33.94.94,0,0,0,.18.12c1.24.77,2.26,2,3.88,1.91a1.14,1.14,0,0,0,.64-.24,2.3,2.3,0,0,0,.53-2.43c-4.16-6.9-6.54-14.54-8.67-22.37a1.43,1.43,0,0,0-2-.91c-2.25,1.18-3,2.95-3.76,4.72a50,50,0,0,0-3.58,18.53c0,2.83.16,5.69-.77,8.42-1.57,4.6-1.13,9.09-.08,13.76a48.52,48.52,0,0,0,9.66,20.58c3.77,4.64,3.43,7.9-.49,12.39-5.65,6.47-8.61,14.18-10.07,22.5-.46,2.67-.65,5.49,1.12,7.93a1.45,1.45,0,0,0,.39.39c2,1.3,4.29,1.1,6.5,1.31a15.08,15.08,0,0,1,11.17,6.78c5.93,8.47,4.41,26.19-2.71,33.67-1.62,1.7-3.56,3.15-4.54,5.38a1.33,1.33,0,0,0-.09.79c.73,4.44,3.52,2,5.2.86,16.09-10.78,16.95-33.69,5.48-46.6-3.76-4.23-8.62-6.46-14.2-7.55a1.45,1.45,0,0,1-1.2-1.44,25.4,25.4,0,0,1,7-17.58,1.44,1.44,0,0,1,2.22.1,12.1,12.1,0,0,1,1.5,4c3.09,10.32,8.42,19.44,16.54,26.32,7.28,6.19,10,14.23,10.94,22.8,1.57,15,.83,30.23.89,45.34.07,19.44-3.76,38.62-5.3,58.35a1.49,1.49,0,0,1-.62,1.06c-6.94,4.84-10.52,12.73-15.67,19.35-6.94,8.91-12.31,19.35-23,24.58a46.5,46.5,0,0,0-9.3,6.29c-3.06,2.82-6.25,5.5-10.58,5.94s-8.83,1.37-13.31,1.39h-.19c-4.94.68-9.48,2.89-14.39,3.64a22.53,22.53,0,0,1-8.34-1.34c-2.38-1.21-4.07-3.4-5.67-5.57-5.9-8-6.67-17.26-5.95-26.68.95-12.3,7.44-21.45,16.41-28.45a1.41,1.41,0,0,1,.68-.31c2.84-.4,5.57,1.19,7.69-.57a1.44,1.44,0,0,0,.29-1.86c-1.73-2.78-4.75-3.76-7.14-5.45-11.52-8.17-16.88-18.79-14.1-33.12.74-3.82,2.88-7.36,2.44-11.41a1.9,1.9,0,0,0-.11-.39,3.54,3.54,0,0,1-.14-.39,1.44,1.44,0,0,0-2.61-.16c-9.42,17.55-6.27,34.21,8.27,47.43a1.44,1.44,0,0,1-.18,2.25c-12,8.43-18.1,20.08-18,35,.11,13.74,3.83,25.62,15.68,33.89a1.45,1.45,0,0,1-.64,2.64c-14.26,1.49-25.53,10.18-38.35,14.59-16.51,5.68-33,11.6-47.59,21.85-24.59,17.32-42.87,40.65-61.39,63.74-9.64,12-20.89,23-26.66,37.71-1.69,4.31-3.95,7.48-8,9.68-9.84,5.42-15,13.77-15.49,24.7a1.4,1.4,0,0,1-.39.93c-24.17,25.33-46.67,51.82-65.92,80.59a1.42,1.42,0,0,1-2.37,0c-4.15-6-8.16-12-12.63-17.76-3.07-3.92-7.54-5.56-12.55-3.78s-8.88,4.58-9.89,10.12c-3,16.27-3.41,32.69-3.1,49.18.14,7.75,1.74,16.51-1.2,23.08-9.79,21.85-12.63,44.59-12.38,68,.13,12.43,6.16,21.28,17.12,27.18,22.29,12,46.24,19.51,70.25,27.08,34.19,10.78,68.46,20.88,104,26.49Q271.68,948,320,960.34c8.39,2.15,15.72,4.44,21.09,11.57,5.18,6.86,10.77,13.42,16.74,20.76a1.5,1.5,0,0,1,.28,1.23c-3.88,17.74,8.81,26.31,21.18,34.85a1.44,1.44,0,0,1,.44,1.9c-9.12,16-19.12,31.49-24.34,49.51a1.44,1.44,0,0,0,1.39,1.83h7.45a1.39,1.39,0,0,0,1-.36c1.62-1.59,2-3.82,2.45-5.87,3.46-14.2,11.73-26,18.9-38.36a5.73,5.73,0,0,1,3.05-2.69,1.71,1.71,0,0,1,.5-.1c3.64-.13,7.57,1.15,11.72.2,9.3-2.14,16.69-7.4,23.47-13.62,4.48-4.1,9.34-8.05,11.39-14.16a1.11,1.11,0,0,1,.09-.19c.44-.83.86-1.67,1.35-2.47,11.64-19.16,23.55-38.22,22.75-61.92a1.79,1.79,0,0,0-.09-.46,21.41,21.41,0,0,0-3.56-6.16c-5.6-7.34-13.23-12.61-19.18-19.61-13.06-15.38-25.9-30.91-36.25-48.27-7-11.72-13.5-23.74-20.18-35.65-1.11-2-2.13-4-3.09-6a1.44,1.44,0,0,1,2.52-1.4c4.32,6.73,9,13,13.67,19.3a14.25,14.25,0,0,0,5.68,5,1.54,1.54,0,0,1,.53.37c1.87,2.13,3.63,4.38,5.66,6.34,5.65,5.46,10.08,13.46,20.09,10.33A1.56,1.56,0,0,0,427,866c4.57-2.76,4.71-7.37,4.15-11.78-1.56-12.4-3.67-24.75-8.07-36.5a132.85,132.85,0,0,1-6.88-27.54c-1-6.56-1.12-13.42-4.37-19.4-7.83-14.4-13.19-29.83-19.17-45-7.36-18.7-13-37.77-11.29-58.27.31-3.8.1-7.64,0-11.46a26.46,26.46,0,0,0-2.33-10.4c-7.49-16.63-16.7-32.39-24.47-48.86-7.13-15.1-13.07-30.67-12.22-47.89a15.37,15.37,0,0,0-1.6-8.25c-7.83-14.29-15.24-28.88-28-39.67-1.14-1-2.28-2-2.51-3.59a2.82,2.82,0,0,1,.47-1.4c1.73-2.27,4.95-1.09,6.9-2.88a1.36,1.36,0,0,1,.35-.24,256.08,256.08,0,0,1,68.78-22,1.44,1.44,0,0,1,1.48.69c8.63,14.37,20.56,23.8,22.87,39.62,4.52,30.93,19.57,58,33.63,85.31,7.79,15.12,20.66,27.29,26.17,43.92,1.8,5.44,2.82,11.23,6.5,16,3,4,6.1,4.81,10.7,2.66a105.35,105.35,0,0,1,58.37-9.28A97.94,97.94,0,0,0,583,648c20.06-5,38-16.56,58.7-19.15,15.77-2,31.43-4,46.65-8.73a1.31,1.31,0,0,0,.55-.31c1.72-1.58,1.64-3.71,1.34-5.75-1.1-7.39-2-14.83-3.89-22.07-5.22-19.74-12.45-39-14.44-59.51l-1.26-3.62c-5.49-8.38-10.64-16.89-14.27-26.35-2.68-7-5.3-14-8.57-20.78a343.18,343.18,0,0,0-19.87-35.8c-1.05-1.63-2.06-3.15-.09-4.79,14.17-8.77,30.32,1.11,45.43-5.25a1.44,1.44,0,0,1,1.64.34c1.32,1.45,2.82,2.75,3.34,4.37,5.3,16.5,16.06,30.14,23.51,45.5,6.57,13.54,8.79,28.52,13.49,42.69,9,27.07,18.13,54.07,28.48,80.68,7.26,18.68,9.15,39.11,17.11,57.69,1.13,3,4.63,2.48,6.52,4.36a9.82,9.82,0,0,0,3,1.74c8.77,2.82,15.83,8.09,22,14.75a47.3,47.3,0,0,0,5.37,5c8.21,6.52,17.54,9.78,27.29,6.48,5.69-1.93,9.37-.78,13.18,3.4A51,51,0,0,0,866.31,719a8.72,8.72,0,0,1,4.09,1.6,1.46,1.46,0,0,1,.37.45c.89,1.68,1,3.77,1.45,5.76.43,1.79.76,3.67,2.41,4.78,6.69,4.52,11.48,11.09,17.52,16.29,5.38,4.61,10.32,10.61,18.72,8.09a1.44,1.44,0,0,1,1.58.59c4.09,5.84,10.71,8.73,14.93,13.87a1.49,1.49,0,0,1,.2,1.47,18.58,18.58,0,0,1-4.07,5.77c-5.91,6.55-9.59,12.19-15.72,18.54-.75.77-3,3-5.5,5.55a1.44,1.44,0,0,0,1.69,2.3,10.1,10.1,0,0,1,1.83-.82,1.51,1.51,0,0,0,.45-.2,74.49,74.49,0,0,0,13.57-11.81c12.12-12.89,23-27.19,39.41-35.3,1.44-.71,3-1.59,2.86-3.82a1.45,1.45,0,0,0-1.69-1.28c-7.64,1.19-13.53,6.09-19.91,9.87a1.17,1.17,0,0,1-.36.16c-7.84,2.41-17.94-1.76-20.7-8.51a1.44,1.44,0,0,1,.22-1.41,18.06,18.06,0,0,1,4.68-3.74c6.53-4.31,12.89-8.87,19.21-13.47,14.2-10.33,26.66-22.56,38.14-35.82,4.67-5.38,9-5.78,13.44-.68,8.53,9.77,17.44,19.26,24,30.57a34.45,34.45,0,0,0,2.94,4,83,83,0,0,1,13.61,22c5.85,13.28,8.89,26.76-1,39.69a141.49,141.49,0,0,1-18,20c-14,12.39-28.75,23.85-43.68,34.94C953.11,863.3,934,879.23,911.47,890.3c-17.45,8.57-34.73,17.61-51.38,27.8-15.05,9.2-31.11,16.69-46,26.25-5.6,3.6-11.29,7.54-18.11,8-7.08.51-11.83,3.61-15,9.85a71.71,71.71,0,0,0-3.33,7.24C771.16,987,761,1001.58,744.38,1011l-.08.05c-1.46,1-2.94,2-4.91,1.8a2.41,2.41,0,0,1-.37-.07c-2-.67-3.25-2.41-4.63-4-2.77-3.18-4.34-7.07-6.42-10.66-9-15.59-16.1-32.1-23.27-48.56-.54-1.25-1-2.59-.42-3.87,2.86-6.19,5.89-12.28,12.43-15.51l.18-.07a54.23,54.23,0,0,1,10-2.55c15.38-2.81,30.93-4,46.51-4.94,3.53-.22,7.41-.32,9.59-3.91a1.36,1.36,0,0,0,.11-1.18c-.42-1.12-1.46-1.48-2.61-1.72a1.33,1.33,0,0,0-.4,0c-18.2,1.25-36.44,2.25-54.36,5.84-9.33,1.87-18.57,4.3-25.24,12-.2.23-.62.14-1.48-.18-3.27-8.06-6.28-16.37-3.18-25.68,3.22-9.65,6.94-19.08,11.06-28.39,9.07-20.49,16.82-41.38,17.58-64.17a10.2,10.2,0,0,1,4.14-8.15c12.3-9.52,22.83-20.78,32.87-32.65,14-16.57,21.68-35.65,24.51-56.93.56-4.21-.25-8-4-10.55A2.83,2.83,0,0,0,779,707a1.24,1.24,0,0,0-.4.5c-1,2.32.71,5.07-.89,7.3a1.73,1.73,0,0,0-.25.51c-1.18,4.62-1.82,9.23-3,13.84-4.26,14.18-9.8,27.88-19.06,39.91-9.86,12.81-19.13,26-33,34.85-2.1,1.34-3,3.46-3.7,5.73A77.09,77.09,0,0,0,716,825.35c-1,11.1-6.08,21-9.77,31.31-6.12,17.06-12.54,34-17.74,51.38-1.45,4.85-2.84,9.79-1.79,15a1.7,1.7,0,0,0,.1.32c3,6.9,5.82,13.88,9,20.67,21.26,45.09,42.12,90.35,59.59,137.08a1.42,1.42,0,0,0,1.34.94h1.42a1.44,1.44,0,0,0,1.36-1.93,211.51,211.51,0,0,0-12.39-28.76c-4.82-9-12.15-18.81-.6-28.48,13.94-11.66,22.94-27,32.08-42.31,4.45-7.45,7.66-16.87,15.87-20.55,12.68-5.68,23.73-13.82,35.59-20.7,41.93-24.32,87.07-43.12,126-72.5,27.42-20.67,56.52-39.29,80.12-64.76C1047.4,790,1053.11,776.05,1045,761.17Zm-725.36-70.9a12.24,12.24,0,0,1,3.61-2.25,1.44,1.44,0,0,1,1.84,1C347.67,768.11,372.67,844.84,426,909.54a1.43,1.43,0,0,1-1.17,2.35c-20.56-1.07-40.35,2.52-60.07,2.33-10.42-.1-21.79-5.33-32.72-8.27-22.25-6-45.3-10.05-65.7-21.27-34.71-19.09-69-39-103.36-58.68a16,16,0,0,1-2.66-2.15,1.41,1.41,0,0,1-.41-1.45c1.57-5.19,5.51-8.3,8.52-12,11.41-14.21,22.88-27.24,42.54-31.55,11.16-2.45,20-11.82,22-24.79.59-3.73,3.25-5.83,6.27-7.19C269.65,733.08,294.36,711.24,319.67,690.27Z"/><path class="cls-8" d="M425.75,191.44c-5.17-7.07-8.6-14.81-8.79-25.39-9.22,13-6.64,27-8.6,39.74-2.15,13.93,10,24.09,14.24,36.2-10.88,9.42-14.73,20.69-14.86,34.26,10.43-1.44,18.25,2.05,21.26,11.43,4.48,14,2.81,27-9.94,36.59-2,2.65,1.35,2.16,1.95,3.28a45.28,45.28,0,0,1,3.88,10c1,4.17.48,8.13-2.41,11.53-2.31,2.86-2.86,5.9-.87,9.18,2.72,6.1,4.73,12.28,2.09,19-.22,2.72,1.78,5,1.51,7.49a4.7,4.7,0,0,1-2.15,3c-6.4,3.91-8.1,10.16-8.76,17-.84,8.61-3.38,16.6-9.07,23.36a23.44,23.44,0,0,1-10.94,7.56c-5.42,1.72-10.52,1.56-14.67-3.07a6.72,6.72,0,0,0-3.7-2.41c-7.18,2.14-8.74,11.78-8.33,19.65a28.56,28.56,0,0,0,5.24,14.38c1,1.46,2.61,2.71,2,4.85-2.12.44-4.26.8-6.36,1.31-17.47,4.27-27.44-3-29.54-21.5-2-17.86,4.69-31.78,19-42.38,2.53.31,4.61,2.94,8.26,1.13-21.33-11.08-29.82-27.14-20.19-50.16,1.67-1,2.78.35,4,1,8.7,4.64,14.64,2.81,19.12-5.89a40.68,40.68,0,0,0,2.72-6.88,4.51,4.51,0,0,1,2.09-2.57,3.54,3.54,0,0,1,2.74.65c.59.31-.15.33.4.2.82-.2-.25-.44-.2-.76-2.62-4.46-5.89-8.49-8.19-13.09-11.92-23.83-12.77-47.39,2.09-70.42,5-7.78,12.28-13,20.6-16.75a86,86,0,0,1,17.39-5.79l3.94-.86a28.51,28.51,0,0,1-4.62-4.6c.64-.3-1.06-.91,0-.7-2.47-4.26-5.7-7.83-7.14-12.24-6.2-18.89-8.91-37.84-.75-57,3-7,8-12.16,13.57-17,1.76-1.51,3.75-2,5.47-.67-1.67-19.75-.28-38.95,12.06-55.92a65.42,65.42,0,0,1,10.16-10.93C442.9,76,446,73.63,446,73.63a4.14,4.14,0,0,1,1.74-1.1c2.53.72,1.66-1.47,1.89-2.42,4.25-17.64,14.6-30.71,29.71-40.39,6.1-3.91,12.93-5.07,19.85-6.23,8.13-1.36,16.3-1.11,24.43-.59,4.6.29,10.16,2.6,12.85,6.6a41.57,41.57,0,0,1-6.22,2.64c5.95-1,10.71-3.31,15.57-5.27,31.41-12.68,62.74-12,93.71,1.2C655.35,34.82,666.2,46.44,670,63.79a9.27,9.27,0,0,1,.13,3.48c-3.48,4.63-6,9.9-9.51,14.48C655,89.16,647,91.58,638,90.57c-1.52-.17-3-.53-3.73-2.09-.74-2.56.88-4.37,1.87-6.13A46.36,46.36,0,0,1,632,87.41c-1.72,1.61-3.51,3-6,3.15-11.07.48-22,2.53-33.14,2-5.21-1.25-5.57-1.51-12.08-8.85a6.41,6.41,0,0,1,.9,2.68c-.26,2.12.22,4.31-.41,6.29-1.69,1.4-2.9.11-4.2-.42-6.82-6.08-14.19-11.65-20.21-18.5-7.87-9-25.73-13.07-36.62-7-9.53,5.35-19.81,9.3-29,15.48-4.52,3.06-9.83,4.94-15.62,3.89a2.54,2.54,0,0,1-.46-.17c-.11.47.42.37.58.63,2.33,3,5.92,4.3,8.93,7-.18,6.22-2.53,11.79-5.88,17-1.61,2.52-3.73,4.72-4.69,7.63-4.09,6.6-11.12,9.26-17.44,12.82-5.39,3-11,5-16.51.11-.76,1.38-.12,2.08.08,2.85,3.25,6.41,8.19,10.57,14.92,11.27a5.31,5.31,0,0,1,2.08,4.4c.32,6.77-3.18,12.2-6.27,17.79-.75,1.36-3,2.74-.35,4.43,4.58,5.36,3.63,11.75,3.29,18-.07,1.28-.64,2.56-.68,3.9a6.14,6.14,0,0,1-.38,1.63c-1.66,4.57-5.1,4.56-9,3.47-2.6-.7-5.2.28-7.88-.15C431.23,198,427.55,196.16,425.75,191.44Z"/><path class="cls-9" d="M364.74,1082c3-18.8,13.69-33.93,23-49.48,23.91,5.09,35.73-11.55,48.94-25.58,1.22,6.5-3.46,10.18-7.2,13.94-11.94,12-27.08,21.12-32.45,38.8-2.32,7.66-6.07,14.9-9.17,22.33Z"/><path d="M669,67c-3.8-25.62-22.24-36.85-44.35-42.76-27.55-7.36-55.08-7-81.63,5.54-9.09,4.29-14.34,4.35-19.33,2L536,29.49c-13.21-8.29-27.43-6.64-39-4.39-13.42,2.6-23.83,9-32.79,18.53C455.39,53,451.79,64.55,449,77.05c-.05.23-.32.21-.44,0a8.72,8.72,0,0,1-.79-4.52c3.26-26.07,23.25-48.22,55.76-52,16.68-1.94,30.2.5,38.73,5.52,25-12,51.65-12.87,78.31-6.56,24.29,5.75,44.69,17.44,50.86,44.37,2.93,12.8-2,26.62-10.44,31.53-3.4-1.44-1.16-3.3-.05-4.49C667.18,84.1,668,75.52,669,67Z"/><path class="cls-10" d="M373.05,345.36c-3,16.9-12.83,21.23-27.23,12-.26-1.69-.33-2.25-.6-3.94l.37-.75c12.69,11.88,20.4,7.82,25.14-12.4-3.73-7.52-8.19-14.47-10.77-22.07-12.64-37.11,5-68.08,46.05-81.82a6.43,6.43,0,0,1,2.05-.33h6c-8.53,3.11-14.73,4.86-20.48,7.55-26.25,12.26-38,40.62-30.11,69.93,3,11.25,9.54,20.24,15.27,29.85.9.69.63,1.28-.16,1.84-2,.21-2.59-2-4.45-1.94C372.91,343.79,373.51,344.58,373.05,345.36Z"/><path class="cls-5" d="M445.26,72.94c1.62-.9,1.58,1.57.44,2.47-22.8,18.13-28,42.41-24.55,69.78a7.86,7.86,0,0,1-.11,2c0,.27-.13,1.11-.65,1.16s-2-2.72-2.53-4.7c-15.52,10.67-21.47,25.57-21.3,43.41a87.39,87.39,0,0,0,15.19,48.51c-.9-.66-2-1.07-2.88-1.73a22.22,22.22,0,0,1-5-5.81c-14-24.09-14.61-55.59-1.12-74.9.63-2.37,2.36-4.42,2-7.07l12.34-7.25C415.42,112.57,420.34,88.45,445.26,72.94Z"/><path class="cls-11" d="M669,67a28.54,28.54,0,0,1-6.48,24.44c-.84,1-4.13,1.49-1.59,4-1.61,1.33-1.71,4.65-1.13,6.45,1.65,3.36,3.5,6.65,4.9,10.12a69.25,69.25,0,0,1,2.33,8.08,56.52,56.52,0,0,1-10.22,1.15,1.47,1.47,0,0,0-1.55,1.49s-2.23-1.6-2.59-3.55c-.49-2.72-1-5.44-1.52-8.15-.4-4.6,3.45-8.57,2.35-13.43-4.65-1.43-10.14,1.23-13.5-3.87-3,1.62-5.81,3.68-9,4.93,1.34-.35,2.62-.71,3,1.22-3.85,3.56-7.15.35-10.61-.85-.74-.57-1.2-1.47-.51-2.1,3.81-3.44,6.93-7.75,12-9.68,5.37,5.41,20.3,1,25.8-7.9C663.29,75.07,664.78,70.11,669,67Z"/><path class="cls-5" d="M404.74,146.05c3.32,3.46-.69,4.89-2,7.07,0,0-6,1.67-10.25,9.13C394,153.79,399.66,149.31,404.74,146.05Z"/><path class="cls-12" d="M585,748.06l4.51,9.66c32.76-7.06,65.18-14,97.61-21,3.95,18.7-40.93,94.52-62.64,104q-12.76-13.82-26.7-28.93c11.69-9.42,23.26-19.51,34-33.14-6.18,1.39-10.91,2.2-15.49,3.53-9.73,2.82-19.84,4.93-28.95,9.15-10.51,4.87-16.94,1-22.67-7.05-12.06-17-21.8-35.32-32.9-54.68C583.2,709,637.33,701,690.69,685.88c.67,14.9-2.51,27-6.46,38.58Z"/><path class="cls-9" d="M426.82,866.15c6.68-10.6,1.71-21.33-.87-31.34-9.08-35.23-16.85-70.88-32.82-104.07-10.27-21.36-15.36-44.23-13.31-68.26,1.46-17-8.91-29.83-15.88-43.71-11.72-23.35-22.24-46.27-24.19-73.55-1.14-16.08-14.34-30.22-27-42-2-1.87-4.07-3.68-6.18-5.58,3.08-4.33,7.69-3.06,11.17-4.64l-4.39,2.58c10.26,14.07,23.24,26.59,30.64,43.09,1.59,3.55,2.91,7.78,2.57,11.54C344.31,576,359.74,595.51,370,616.79c6.68,13.82,15.52,26.6,17.57,42.46.71,5.46-1.69,10.06-1.76,15.17-.19,15.79,6.66,30,10.13,44.9,4.61,19.86,18.61,36.65,21.38,56.53,3.81,27.3,15.23,52.86,16.55,80.52C434.13,861.55,432.22,865.09,426.82,866.15Z"/><path class="cls-9" d="M774.48,729.17c-1.21,20.89-14.28,36.34-26.13,51.91-7,9.22-14.49,18.22-25.09,23.87-3.94,2.1-4,6.65-4.27,10.19-2,24.54-13.82,46-21,68.86-4.07,13-9.77,25.46-11.22,39.18-2.56-8.66-1.19-17.51,1.67-25.37,10.23-28.08,14.45-57.21,16.18-86.73.76-12.85,8.73-18.18,18.06-24.74C743.94,771.34,760,750.55,774.48,729.17Z"/><path class="cls-13" d="M460.82,942.21c-18.51-19.52-37.73-38.55-52.3-61.31-15-23.43-30.24-46.85-37.67-74.28,9.14,14.82,18.69,29.3,29.81,42.67,2,9.92,10.41,16,14.75,24.61,11.26,22.33,29.71,39.6,43.19,60.41A11.87,11.87,0,0,1,460.82,942.21Z"/><path class="cls-9" d="M670.84,529.17c-10.14-8.22-13.35-20.46-18-31.76-7.74-19-16.76-37.26-29.09-54.56l4.05-1.7c12.08,17,23,34.72,29.94,54.4C661.81,506.91,669.15,517,670.84,529.17Z"/><path class="cls-14" d="M688.66,620c-.1-16.35-5.47-31.59-9.4-47.2-3.43-13.66-10.29-26.83-7.47-41.65,8.54,22,12.91,45.13,19,67.79,1.37,5.09,3.62,10,3.13,15.52C693.63,618,692.66,620.32,688.66,620Z"/><path d="M760.85,667.17l6.95,3.08c-1,1.74.17,3.22.68,4.69,3.35,9.54,6.84,18.69,11.75,27.47.93,1.67,2.39,4.23,3.76,6.32-.91-.14-3.69-1-4.43-1.09-1.64,2.43.67,9.46-2,7.41,1.57-13.39-8.93-22.62-11.93-34.46C764.47,676,762.47,671.64,760.85,667.17Z"/><path class="cls-15" d="M651.92,110q1.88,7,3.74,14.1c5.28,27.33,5.74,53.76-8.5,79.41-6.88,12.38-9.33,26.32-3,41.14,5.48,12.9,1,26-5.74,37.73C621.29,312.2,601.52,339.7,575.52,363c-20,18-39.87,9.45-56.4.94-7.19-3.71-13.69-8.85-20.29-13.62s-12.9-9.86-21-16.1c7.24,12.29,18.08,18.17,26.06,26.8,8.73,6.89,16.58,14.8,25.16,21.88,7.57,6.24,15.31,12.22,23.92,17,1.93,1.07,3.71,2.12,4.37,4.45,3.93,13.79,13.72,24.14,21.27,35.78,2,3,4.07,6.05,6.26,9,5.16,24.86,15.29,48.69,15.37,74.59a43.75,43.75,0,0,1-.39,4.41c-1.19,11.93-3.42,23.58-8.51,34.58a27.23,27.23,0,0,1-34.64,13.53,63.74,63.74,0,0,1-13.86-22.25c-6-16-16.34-28.83-28.49-40.44-19.29-18.43-34.15-40.27-48.31-62.65-12.34-19.49-11.75-40.73-10.15-62.7,2.22-30.34,2.25-60.82-1.13-91.16-.34-3-2.06-6.2-3.09-9.31a6.26,6.26,0,0,0,4.51-2c-21.44-7.33-35-37.29-30.34-59.59,3-14.31,8.06-16.56,20.05-8.92,2.89-.26,2.89-2.66,3.26-4.62a28.5,28.5,0,0,0,.17-7.38,13,13,0,0,1,2.72-8.7c6.63-8.36,6.27-17.93,4.31-27.54-.8-3.91-1-7.43.48-11.15A39.1,39.1,0,0,0,459,137.64c-.57-4.34.87-7.24,4.52-9.61A107.73,107.73,0,0,0,475,119.26a69.65,69.65,0,0,0,18.5-24.43c.89-5.13,4.29-7.9,8.85-9.82,4.89-2.05,9.45-4.85,14.63-6.28,10.69-2.94,20.93-.78,30.54,3.7A152.33,152.33,0,0,0,583.4,93.7c4.18.81,7.33,4.81,12.08,4,2.09.16,4.18,1,6.28,0a52.39,52.39,0,0,1,19.49-.75,3.23,3.23,0,0,1,1.42,1c5.25-.32,11.12.9,11.19,1.33A3.66,3.66,0,0,1,637.44,97c4.77.19,9.58.15,14.11,1.46C653.66,102.45,651.35,106.25,651.92,110Z"/><path class="cls-16" d="M149.68,769.28c-6-4.42-12.37-8.47-18-13.33-10.65-9.19-22.42-15.17-36.72-16-3.07-.18-6-2.29-9.66-3.77,13.49-21.89,29.26-40.88,45.66-59.35,7.47-8.42,14.37-17.42,23.44-24.36,4.91-3.76.68-10.84,5-15.07a78,78,0,0,0,5.28-6.42c3.17,1,1.33,3.36.91,4.79a65.17,65.17,0,0,0-2.13,20.75c.21,5.86,1.95,11.29,4.3,17.64.78-4.75,1.65-8.41,2-12.18,1.16-32.65,15.08-59.68,35.93-84.07,19.91-23.29,38.88-47.44,64.84-64.54a177.23,177.23,0,0,1,20.1-10.93c7.83-3.82,14.41.43,19.39,5.38,9.82,9.73,19.08,20.67,23.62,33.63,3.54,10.07,3.83,21.39,6.55,32,6.94,27.14,22.91,50.11,33.94,75.35,2.08,4.76,2.13,9.48,1.66,14.16-2.34,23.25,5.13,44.33,12.59,65.82s20,40.66,24,63.3c2.19,12.41,5,24.71,7.57,37.06-3,1.07-5.08-.94-7.37-2.13-13.89-7.22-24.52-18.14-34.28-30.1s-15.89-26-20.22-40.87a428.43,428.43,0,0,1-11.86-54.63c-1.65-10.69-4.47-21.17-5.62-32-.22-2.09.53-4.33-.75-6.3-2.28-1.64-2.82.55-3.73,1.75-26.33,34.88-61.45,58.4-100.11,77.26-3.81,1.86-6.93,3.74-7.9,8.07-10.32,11.31-22.94,18.43-37.51,23.35C175.79,778.59,162.86,774.82,149.68,769.28Z"/><path class="cls-15" d="M330.66,958.3c-25.25-5.07-50.41-10.59-75.76-15.1-36.38-6.46-73-11.81-108.28-23.26-27.93-9.07-56.31-16.79-82.75-30.21-18.63-9.45-28.48-22.87-27.17-44.27,1.11-18.13,1.45-36.27,14.34-51.64,24.53,1.73,47.55,8.35,70.18,17.55,51.91,21.08,99.09,51,148.13,77.53C291,900.61,316.2,902.69,339,911.24c22.15,8.33,43.87,3.73,65.9,3.39,6.32-.09,12.67,2.26,19,3.5a53,53,0,0,1,13.68,11.26c3.19,3.68,5.65,7.72,5.7,12.82-.76,9-5.19,16.79-8.82,24.76a98.13,98.13,0,0,1-26.52,34.46c-1,.85-2.28,1.46-2.42,3-.3,3.45.11,6.9-.06,10.35-.48,9.76-6,14.5-15.82,13.56-7.08-.89-12.14-5.18-16.87-10,1.95-3.54,4.1-1.61,6.23-.22,4.89-1.57,1.8-4,.36-5.67-6.1-7.11-12.4-14-18.62-21.06-3.21-8.25-18.31-34.83-20.93-36.81-2.07.39-2.32,2.69-4.07,3.87A8.88,8.88,0,0,1,330.66,958.3Z"/><path class="cls-16" d="M745.94,604.15c-16-37.36-29-75.66-37.87-115.41-3-13.39-15.19-22.44-21-34.79-2-4.31-4.3-8.52-6.59-13,40.2-2.39,69.52,1.47,97.25,42.9,26.19,39.12,61.55,65.7,101.78,87.86,26.38,14.53,45.62,37.73,67.34,58.11-3.22,22-10.9,41-28.07,55.22Q905.89,695.67,893,706.24c-7.9,2.14-15.43,2.78-23.79.22-11.25-3.43-19.83-10.63-29-17-5-3.5-9.55-3.82-15-2-4.35,1.47-8.59,3.47-13.52,2.8-4.52-.61-8.25-2.26-11.17-5.8-5.61-6.79-11.24-13.58-17.48-19.81-13.22-13.17-20.69-29.94-29.17-46.09C751.34,613.68,749.08,608.67,745.94,604.15Z"/><path class="cls-15" d="M1020,727.06c13.12,16.11,25.89,33.2,21.33,55.16-3.34,16.09-16.81,26.58-29.18,36.8-27.84,23-55.6,46.28-86.47,65-29.62,18-60.77,33.39-91.19,50.05-10.35,5.66-20.51,11.66-30.75,17.49-.58.33-1.19.86-1.79.86-19.5,0-21.9,16.18-28.07,29.18a66.71,66.71,0,0,1-29,30.6,3.49,3.49,0,0,1-3.76.14,24,24,0,0,1-10.06-13.61,2.86,2.86,0,0,1,.8-2.74c1.41-1.06.9-2.45.36-3.6C725,977.14,720.76,961,717.37,944.51a4.42,4.42,0,0,0-.93-1.75c-4.08-4.11-2.6-8.87-1.58-13.57,18.86-6.46,38.65-6.35,58.16-8.31,3.34-.34,6.57-1.76,9.85-2.68,9.17-8.63,18.51-17.1,27.22-26.19,8.16-8.51,16.75-16.6,25.39-24.57,10.62-9.81,20.58-20.29,31.23-30.08,9.89-9.09,19.32-16.23,28.39-26.2,2.82-3.09,7.06-5.94,10.66-9,11.58-9.94,21.74-22.18,32.87-33,6.92-6.75,15-11.71,23.1-16.89-7.92,1.29-14.33,5.83-21,9.9-2.9,1.09-5.83.36-8.81.45-1.8-3.26,0-5.65,1.56-7.91A75.13,75.13,0,0,1,943,743c12.06-11.87,23.14-24.9,38.75-32.66,7.65-3.8,14.62-3.31,21.8.94C1010.25,715.3,1015.08,721.22,1020,727.06Z"/><path class="cls-16" d="M552.86,579.16c20.2,15.93,32.73,37.63,45.27,60.45-11.68,5.22-24.47,8.07-36.28,5.89-26-4.81-50.36-1.07-74.34,8.69a22.37,22.37,0,0,1-3.85.85c-3.54-2.15-5.49-5.37-6.86-9-8.31-22-22.77-40.55-33.69-61-13.32-25-25.89-50.58-29.19-79.45-1-8.57-5.43-15.29-11.84-21.24-9.35-8.67-8.59-15,2-22.42,4.21-2.94,8.84-5.26,12.69-7.52,8.36,0,9.72,6.76,11.53,11.5,11.31,29.66,22,59.57,29.13,90.6,1.46,6.38.22,12.85-.52,19.11,4.08,2.16,6.75-.59,9.74-1.57a76.11,76.11,0,0,0,29.89-15.4c2.65-2.27,5.44-4.39,8.17-6.56,6.32-5,8-5.25,14.29.06,9.41,7.95,19.24,15.35,28.69,23.23A26.78,26.78,0,0,0,552.86,579.16Z"/><path class="cls-8" d="M611.79,375.15c-7.56-16.65,2.08-29.08,10.23-41.9,2.74-4.3,5.32-8.7,8-13.06,2.54-4.59,4.33-9.29,7.92-13.14a21.22,21.22,0,0,0,4.73-8.16c3.19-10.29,7.7-20.22,8.59-31.16.08-1.05-.52-2.9,1.74-2.68,17.9,9.41,21.33,32.48,7.27,49.48-3.45,4.17-7.18,8.12-11.92,13.46,13.65-.75,24.77,2.2,30.11,14.07,4.83,10.76,2.24,22-2.4,33.42,9.85-5,22,5.85,21.58,18.17,11.18,3.53,16.23,12,17.39,23.31a6.85,6.85,0,0,1-1,6.13c-5.9,9.1-16.85,10.72-24.58,3.24-4.67-4.52-9.73-5.07-15.62-3.31-8.77,2.62-8.84,2.55-13.07-5.18a11,11,0,0,0-9.13-6.06c-2.28-.2-4.71.21-6.68-1.36-1.37-1.64-.7-3.53-.79-5.31-.4-7.65-3.48-13.86-10.14-17.88-4.84-2.91-9.82-5.57-15.4-7C615.77,379.51,612.76,378.58,611.79,375.15Z"/><path class="cls-16" d="M666.92,544.15c7.42,23.44,15.11,46.8,20.3,72.05-27.52,12.41-59.8,4.69-85.09,22.68-8.87-14.92-6.06-30.11-6.07-44.86,0-18.42,6.43-36,8-54.19.05-.66,1-1.24,1.54-1.85a29.53,29.53,0,0,1,20.06-3.91,104.93,104.93,0,0,1,13.56,3.14c7.16,2.13,14.33,4.14,21.94,3.47C663.86,540.45,666.05,541.25,666.92,544.15Z"/><path class="cls-17" d="M419.7,327.14s-2.79-1.38-.64-2.87c0,.94-.17,2.52,1.35,1.57,9.2-5.75,14.88-14,15-24.95.09-13.43-7.22-24.78-16.83-27.29a50,50,0,0,0-7.39-.82c1.43-9.43,2.94-18.79,12.24-24.87,4.18,15,11.05,27.78,23.18,38.19,5.9,5.06,6.86,14.5,7.27,22.79a510.23,510.23,0,0,1-4.18,93.59,48.11,48.11,0,0,0-.05,7.07c-13.17,12.07-20.51,27.52-33.51,41.63-12.92,3.21-22.52,22.33-41.3,17.87-13.59-3.23-12-31.57,1.43-42.08,5.21,7.45,12.14,11.23,20.89,6,10.83-6.48,14.6-17.1,15.71-29,.58-6.14,2.07-11.67,6.25-15.39a10.83,10.83,0,0,0,3.1-10.85L422,377c5.13-5.32,2.26-14.21-.71-18.83-.25-.39-.49.15-.94.43-1.54-3.14-1.8-6.63.33-9.48,4.95-1.26,6.8-3.89,5.56-9.55A27.07,27.07,0,0,0,419.7,327.14Z"/><path class="cls-18" d="M130.84,811.17c-24.29-9.48-49-17.66-74.73-22.15a5,5,0,0,1-4.23-4.32c-4-21.54-4.74-43.13-.77-64.75a11.2,11.2,0,0,1,7.63-8.53c3.85-1.38,7.43.22,9.71,3.4a165.83,165.83,0,0,1,11.11,17.12c2.9,5.32,6.74,10.18,12.52,10.47,19.82,1,33.46,13.34,47.9,24.46,5.53,4.26,11.18,8.36,16.78,12.53,2.1,3,.34,5.74-.75,8.38-2.08,5-5.67,9-9.71,12.39C141.48,804.27,136.58,808.33,130.84,811.17Z"/><path class="cls-18" d="M446.85,420.24c5,28.52,24.3,47.83,40.57,68.83,6.62,8.53,13.93,16.54,19.76,23.42-4.19,29.79-23.62,47.06-46.77,61.45,2.09-30.11-11.64-56.16-20-83.39-4-12.93-10.08-25.21-15.2-37.8a7.55,7.55,0,0,1-.54-2.38c-.28-5,15.95-28.92,20.56-30.23A2.35,2.35,0,0,1,446.85,420.24Z"/><path class="cls-17" d="M611.79,375.15c6.3,2.79,12.69,5.4,18.88,8.41,11.56,5.63,15.87,13.35,14.79,26.76,11.65-2.83,16.85,4.56,20.35,14.32,11-5.9,19.76-5.76,28.31,3.68,5.33,5.87,19.41-2.26,20.89-11.36,2.14,9.5-3.28,15.27-9.83,20.28H679.53c-1.3-1.24-2.49-2.37-3.18-3-21.75,2.18-43.61-2.29-63.7,8-7.39-13.46-15.7-23.14-28.32-28.38-1.41-.59-2.63-2.64-3.12-4.27-4.6-15.06-3.41-30.29,0-45.28.76-3.35,4.89-6,7.73-8.78,13.28-12.77,25.82-26.16,36-41.95.65,4.7-.84,7.15-4.68,14.2-7.2,13.2-17.62,25.72-11.46,42.58C609.5,372.15,609.55,374.31,611.79,375.15Z"/><path class="cls-18" d="M898.78,707.07c7.75-6.73,15.76-13.19,23.21-20.24,16.86-15.94,26.74-35.41,28.46-58.76.14-1.89.5-3.76.76-5.68,6.24-.94,10.48.22,13.19,6,5.16,11,10.45,21.86,16.31,32.43,8,14.44-1.2,24.78-8.17,35.28-14,21.13-32.47,37.69-54.56,50.17a6.67,6.67,0,0,1-5.17.1,55.94,55.94,0,0,1-14.51-32.93C898.11,711.29,897.57,709.1,898.78,707.07Z"/><path class="cls-18" d="M590.9,459.15c-1.77-14.39-12-26.63-12-42.67,15.86,2.72,21.74,14.85,29.43,24.58,3.65,4.62,6.18,10.12,9.21,15.23,4.28,4.19,5.74,9.9,7.93,15.16a148.92,148.92,0,0,0,12.89,24.49c1.12,1.7,1.54,3.61,2.46,5.35,5.91,10.9,16.85,17.29,24.2,26.91,1.28,1.68,2.64,3.29,4.68,5.85-6.1,1.6-11.23,3.42-16.6,1.13-10.59-4.53-20.37-10.33-28.45-18.71a11.7,11.7,0,0,0-12.75-3.29c-2.58.25-2.79-1.92-3.38-3.5-5.16-13.62-9.66-27.49-15.12-41A49.1,49.1,0,0,1,590.9,459.15Z"/><path class="cls-19" d="M339.8,663.18c4.35,22.2,8.61,44.41,13.08,66.58,6.43,31.92,16.9,61.78,42.8,83.82a123.16,123.16,0,0,0,24.22,15.59c1.77,10.12,7.69,20.46-.23,31.47a164.4,164.4,0,0,1-33.93-38.3c-10.49-16.2-24.36-30.49-29.79-49.8C345.9,736.76,339.24,700.51,339.8,663.18Z"/><path class="cls-20" d="M442,942.3c-.77-9.38-7.65-14.51-13.94-20.07-1.46-1.28-2.77-2.73-4.15-4.1,13.89,4.67,23.18,15.61,33.75,24.42,1.92,29.63-21.12,71-46.31,83.08-6.83,3.29-14.11,4.66-21.7,2.72,12.81-1.54,17-9.18,13.69-25.17,10.72-5.24,17.25-14.66,23.78-24s10.24-20,14.55-30.34C442.44,946.86,443.92,944.57,442,942.3Z"/><path class="cls-19" d="M745.94,604.15c9.44,8.39,12.62,20.59,18.14,31.19,10.25,19.68,26.29,34.38,40.4,50.74a10.69,10.69,0,0,0,12.45,2.28c13.18-6.79,23.48-2.45,33.55,6.47,12.14,10.75,26.79,13.3,42.48,11.41-3.64,4-7.29,8.09-10.26,11.37-18.28-4.79-35.12-10.85-48.88-23.42-1.71-1.56-5.87-1.42-8.58-.76-11.42,2.79-20.21-.28-28.66-8.73-15.74-15.73-33-30.11-40.93-51.84C752.17,623.38,749.16,613.72,745.94,604.15Z"/><path class="cls-21" d="M1020,727.06c-5.3-4.44-10.51-9-15.91-13.3-7.28-5.83-14.83-6.19-23-1.38-18.89,11.14-33.55,26.74-46.84,43.81-1.14,1.46-1.6,3.43-2.72,5.93h9.19c-8.45,3.12-19.31-1.63-24.37-10.94,20.05-14,40.72-27.48,57.15-46.1,2.53-2.86,5.39-5.49,7.56-8.6,5.18-7.41,11.16-5.25,15.36-.17C1004.7,706.23,1014,715.46,1020,727.06Z"/><path class="cls-19" d="M552.86,579.16c-10.6-4.33-18.12-12.95-27-19.61-4.75-3.55-8.8-8-14.56-10.52-14.25,9.52-25.64,24.15-44.65,25,19.51-13.12,39-26.25,45.09-51.58C535.34,534.65,537.53,561.67,552.86,579.16Z"/><path class="cls-21" d="M556.69,576.28c4.81-.14,9.65,0,14.42-.45,21.36-2.09,20.46-20.79,25.63-34.85,1.51-4.1,2.09-8.54,3.1-12.82.53,23.84-7.6,46.82-7,70.68.21,8.1,0,16.22,0,27.28C582.73,605.89,569.94,590.91,556.69,576.28Z"/><path class="cls-21" d="M584.86,449.16c-12.62-13.59-23.14-28.53-30-46.31a213.23,213.23,0,0,1-51-41.75c10.76,6.56,21.31,13.52,32.35,19.56,8.7,4.76,18,8.39,27.71,12.82C564.45,414.35,580.52,429.47,584.86,449.16Z"/><path class="cls-22" d="M130.84,811.17c5.83-5,11.75-9.9,17.46-15a24.68,24.68,0,0,0,8.46-16.74c6.13,3.7,9.63,11.27,18.29,11.43a34.88,34.88,0,0,0,6.43-.54C158.54,816.66,157.1,823.91,130.84,811.17Z"/><path class="cls-21" d="M714.86,929.19c2.76,3.88-2.5,9.65,3,12.88-.93,8,2.45,15.21,4.54,22.6a163.81,163.81,0,0,0,9.79,26.92c.69,1.41,1.55,3,.44,4.65.6,8,4.86,13.18,12.25,16l-6.7,3.48c-17-20.65-24.85-45.65-36.55-68.55C705.33,940.37,708.44,933.58,714.86,929.19Z"/><path class="cls-19" d="M149.68,769.28c8-.53,14.52,5.13,22.61,5.07,17.42-.12,32.43-6,45.81-16.84,3.19-2.57,6.63-4.84,10-7.25-.29,12.23-13.69,25.69-30.67,30.71-4.59,1.36-9.32,2.28-13.82,3.87-7.72,2.74-13.91,1.21-19.75-4.73C159.71,775.91,154.44,772.85,149.68,769.28Z"/><path class="cls-23" d="M452.79,197.09c-3.74,5.68-1,12.16-2.35,18.53-1.61-.15-1.49,4.5-4.57,1.6.32-6.22-5.1-7.41-9-9.19s-8.19-1-10.17,3.52c-2.22,5.09-3.88,10.44-5.79,15.68-7.32-6-9.15-14.58-9.85-24.24,1.6,3.12,2.94,5.88,7.28,7.16-3.14-5.4-5.64-10.29-5.39-16,.23-5.4-.89-11.21,2.17-19.33.75,7.37,4.15,11.34,6.5,15.51,4.4,4.26,8.73,8.47,15.51,8.66a11,11,0,0,0,6.53-1.67c3.23,1.27,6.24,1.73,8.12-2.14C452.67,195.54,452.3,196.53,452.79,197.09Z"/><path class="cls-22" d="M898.78,707.07c1.52,12.82,4.41,25.11,12.69,35.57,1.82,2.3,3.5,3.91,6.51,3.61a28.63,28.63,0,0,1-13.42,5.47c-9.54-6.91-17.76-15.3-26.39-24.21Z"/><path class="cls-24" d="M620,457.18c-1.2-3.19-2.41-6.38-3.76-10,4.14-.19,7.34,1,9.54,3.84,14.08,18.29,20.79,40,29.82,63.62l-12.92-15.41c-4.29-2.59-6.69-6.82-9.14-10.89-5.56-9.23-9.21-19.37-13.46-29.22A3.72,3.72,0,0,1,620,457.18Z"/><path class="cls-25" d="M656.82,121.2a6.27,6.27,0,0,1,2-1.38c2.64-1.18,5.45-.71,8.18.23h0c7.32,17.66,3.65,50.5-7.22,63.18,1.41-16.3,3-32.27,1.07-48.31C660.32,130.1,659.34,125.43,656.82,121.2Z"/><path class="cls-26" d="M666.92,544.15c-.94-.63-2-1.9-2.82-1.8-19.79,2.17-38.31-12.62-58.52-4.37,2.49-6.74,3.53-14.25,10.21-19,7.6,1.11,12.14,7.25,18,11,8.42,5.43,17,9.76,27.32,9C664.8,538.77,666.76,540.44,666.92,544.15Z"/><path class="cls-27" d="M905.76,802.13q-56.28,54.24-112.62,108.42a73.66,73.66,0,0,1-10.27,7.65c-1.24.37-1.45-2-2.57-2.39,7.24-.71,20.65-16.52,30.53-26.21,26.41-25.9,52.43-52.19,80.26-76.61,3.83-3.36,7.54-7.07,11.09-10.74C903.51,802.29,904.43,802.09,905.76,802.13Z"/><path class="cls-17" d="M653,265.05c-2.23,20.65-9,39.4-23,55.14,6.73-12.46,14.89-35.74,19.11-54.76C649.62,263.12,651.54,263.78,653,265.05Z"/><path class="cls-26" d="M169.71,662V677.5c-5.47-5.73-6.93-12.47-7.85-19.37-1.25-9.26,1.45-18.15,2.8-27.16a5.93,5.93,0,0,1,6.33-2.16c-1.3,12.38-2.58,24.66-3.87,37l1.18.25Z"/><path class="cls-21" d="M330.66,958.3l4.4-.41c1.41-1.84,1.54-5,4.72-5.42a2.9,2.9,0,0,1,3.07,1.89c4.71,12.48,15.31,22.71,17.85,37l-25.82-31.64Z"/><path class="cls-28" d="M590.9,459.15l21,54c-4.71,3-6,8-7.77,15.73-2.44-18.18-2.38-33.9-7.47-48.84C594.31,473.26,591.75,466.86,590.9,459.15Z"/><path class="cls-20" d="M379,1018.1l-6.23.22c-1.78-.64-3.37-3.2-5-4.32-2.35-1.66-4.4-3.38-5.61-5.92a16.49,16.49,0,0,1-1.46-7.06c0-1,.78-1.72,1.64-1.29C370,1003.57,375.76,1011.11,379,1018.1Z"/><path class="cls-29" d="M620,457.18c7.07,14.28,12.15,29.64,22.68,42.07l-1.89,2c-11.32-13.16-16.43-29.52-23.28-45Z"/><path d="M443.7,197.29c-4.78,6.58-16.57,2.84-22-7,1.61-.51,2.06,3.17,4.09,1.14C430.46,197.3,436.81,198.1,443.7,197.29Z"/><path class="cls-30" d="M580.12,92.91a15,15,0,0,0-2.24-1.73c-2.44.14-3.76-1.82-5.46-3-7-4.84-12.72-11.24-19.43-16.45a23,23,0,0,0-12.8-5c-9.53-.65-18.54.77-27,5.56-5.94,3.36-12.24,6.06-18.07,9.64-.19.12-.39.22-.59.34a61.54,61.54,0,0,1,.19,9.93,9.8,9.8,0,0,1,2-2.08c20.94-15,31-14.37,54.44-4.2,11.29,4.9,23.27,7.26,35,10.4C583.62,94.86,581.44,94,580.12,92.91Z"/><path class="cls-11" d="M587.86,91.06c-1.9-1.93-3.41-5-6.85-5-1.65,1.89-2.7,5.06-1.06,6.77,1,1,3.67,2.08,6.23,3.49,3.26.87,6.51,1.8,9.72,2.86C594.89,94.83,590.52,93.77,587.86,91.06Z"/><path class="cls-11" d="M494.54,82.22c-4,2.32-8.55,3.33-13,4.41-2.2.54-4.62-1.5-6.65.64,1.24,2.19,5.82,5.89,8.57,6.57-.35,9.67-7.13,16.23-10.56,24.28,2.52.83,4.09-1,5.59-2.31a61.74,61.74,0,0,0,15.15-22,18.53,18.53,0,0,1,1.12-1.69A61.54,61.54,0,0,0,494.54,82.22Z"/><path class="cls-31" d="M472.87,118.12c10.34-7.56,17.78-17.16,21.84-29.8v2.59a22,22,0,0,1-2.9,10.92c-7.4,13-18.78,22.91-31.64,31.33,1.18,10.43,1.64,20.34-3.81,29.52,2.84,12.33,5.73,24-3.57,34.41l-1-1.94a1.06,1.06,0,0,0,.19-.79c2.07-7.49,3.12-15,1.49-22.65-1.89-.76-3.15.3-4.53.54l-3.3.88c4.58-7.73,10-14.19,10.27-22.85,1.47-4.27-1.81-7.55-2.08-11.85-5.37-.56-8.2.64-15-4.32-1.69-1.23-3.18-4.68-2.91-6.47C453,138.63,462.26,126,472.87,118.12Z"/><path class="cls-31" d="M577.88,91.18a5,5,0,0,1-4.51-.84A169.45,169.45,0,0,1,558.75,78.4c-12.1-11.49-27-13.77-42.23-6.65C509.31,75.12,504,78.64,497,82.55S483,89.21,474.77,87.66c-2.21-.41-5.48-3.11-5.48-3.11C488.46,90,499,74.79,513,67.75c18.31-9.17,33.24-7.22,48.44,8.17C566.73,81.22,572.4,86.11,577.88,91.18Z"/><path class="cls-11" d="M622,98l-21.16,1.13c-3.63-2.27-8.33-3.23-10-8,13.32,2.71,23.87-2.3,36.9-2,.75,2.15-1.28,2.7-2.25,3.81C624.14,94.49,622.25,95.68,622,98Z"/><path class="cls-32" d="M437.93,133.16c4.22,3.92,11.08,4.68,17.65,3.66.36,5,2.5,8.85.36,13.46l-.7-3.76C446.7,146.16,441.09,140.14,437.93,133.16Z"/><path d="M419.7,327.14c8.82,4.88,11.53,16,4.63,22.51-.93.87-3.1,2.22-3.67-.55C428,341.45,423.31,334.08,419.7,327.14Z"/><path class="cls-33" d="M590.86,91.16c4.62,4,7.83,3.38,9.5,7.08a1.3,1.3,0,0,1-.41,1.69c-1.41.83-2.9-.1-4.05-.8C595.06,98.61,585.13,91,581,86a22.5,22.5,0,0,1-4.1-8.54C581.19,83.73,586.14,87.06,590.86,91.16Z"/><path class="cls-33" d="M622,98c-2.17-5.37,11.33-12.86,15.94-18-.34.63-.66,2.19-1.26,4a11.73,11.73,0,0,1-3.6,5.33c-3.31,2.82-6.58,5.37-9.93,8.32C622.64,98.16,622.05,98.14,622,98Z"/><path class="cls-34" d="M449,172.25l4.58-4.83c3.95,9.62,2.1,18.32-1.54,26.94C452.32,186.81,454.9,179,449,172.25Z"/><path class="cls-35" d="M420.74,359.75a6.66,6.66,0,0,1-.58-3.57v0c7.07,4.6,8,15.5,1.82,20.82C424.58,370.91,423.31,365.26,420.74,359.75Z"/><path class="cls-8" d="M373.05,345.36a10.77,10.77,0,0,0,0-3.45c1.49,1.35,2.57,2.25,5.78,1.38.78,1,1.43,2.11,2.07,2.95C377.5,350,376.39,341,373.05,345.36Z"/><path class="cls-36" d="M651.92,110.05c-1.5-2.14-1.34-5.15-.75-8,.51-2.43,0-4-2.44-3.65-4.51.59-9.56,2.56-13.64,1.45a29,29,0,0,0-5.66-1.56c7.84-2.7,8.92-6.64,14.47-8.66-2,2.61-1,4.31-2.55,5.52,1.5,2,11.38-2.37,13,.19C657,100.94,653.4,105.34,651.92,110.05Z"/><path class="cls-18" d="M687.86,690.56c.41,11.18-4.7,20.85-6.18,31-33.55,9-67.5,14.79-100.63,25.15,2.26,6,4,10.48,8.16,13.93l96-20.68c-8.69,39.47-33.47,67.65-58.63,97.11l-25.33-24.08c14.27-11.09,27.2-22.84,39-38.46-23,2.23-42.69,11.7-64.2,16.42-17.13-16.71-26.61-38.81-39.2-58.75C542.91,726.05,668.94,691.27,687.86,690.56Z"/><path d="M495.89,193.34c-2.47-.52-5.29-.25-7.09-3.24l8.14-.89c-1.49-2.87-5.65-2.25-6.11-5.9,3.62-.85,6.45,3.63,10.81,1.23-3-1.94-6.06-3.49-6.83-7.44,4.25.73,6.81,6.34,11.84,3.41-.06-3.37-5.18-4.9-3.35-9.48,4.49,5.61,10.8,5.66,16.88,7.21,11.64,3,17.76,12.33,21.79,23.1-3.06.53-4.3-2-6-3.67-2.11-2.06-3.78-4.61-7-6.27-.51,2.59-.44,5-1,7.38-1.26,5.19-5,8.88-9.69,9.1-4.79.77-9.16.06-12.07-4.48-3.72-3.6-2.69-8.5-3.52-12.88C500.3,191.14,499.06,194.55,495.89,193.34Z"/><path class="cls-7" d="M586.06,302.45c-3.65,8.85-8.38,16.84-17.16,21.62-14,5.91-24.09,4-34.67-6.53l-3.51-3.5c-3.83-6.81-8.21-13.4-8.67-21.56,4.61-.06,6.72,3.74,9.36,6.43,5.12,5.23,10.25,9.59,17.07,12.69,2.21,1,4.25,2.44,6.61,1.6a22.73,22.73,0,0,0,14.83-2.59c4.09-.19,6.68-3.15,9.75-5.24,1.75-1.19,3.11-2.95,5.27-3.51A1.14,1.14,0,0,1,586.06,302.45Z"/><path class="cls-37" d="M443.85,266.17c-12.72-8.25-17.11-20.05-13.68-36.66a39.83,39.83,0,0,0,.51-4.35,3.36,3.36,0,0,1,1.67-2.7c1.35-.72,2.87-.35,4.49.6.53,2.95-1.76,5.12-1.58,7.73.93-1.79,1.79-6,4.18-6.78,3.74-.12,8.59,9.86,6.06,16.11-1.81,4.46-3,8.76-.24,13.27.63,1,1.22,1.49,2.35.93l2.23,4.34c-1.62,2-6,3.76-.94,6.36C447.53,266.78,445.81,267,443.85,266.17Z"/><path d="M488.08,146.19c4-11.46,22.75-18.27,38-14.56,13.09,3.18,23.5,11.81,24.72,20.24a3.77,3.77,0,0,1-3.43,4.24c-3.29.29-6-1.5-8.36-4.6C524.08,131.62,507.45,129.66,488.08,146.19Z"/><path class="cls-6" d="M598.84,210.92a11.91,11.91,0,0,0,5.58,13.45l9.64,2.38-2.17-3.44-6.38-6.37-2-9.81-2.68,1.6Z"/><path class="cls-38" d="M603.39,218.36c-1.44-2.54-1.55-6.57-.21-10a13.2,13.2,0,0,0-4.36,2.5c3.55-6,8.48-8.83,14.85-9.33,5.73-.44,11.81,2.15,16.88-2.62,1.86,3.36-1.66,4-2,6.05,3,2.15,6-.88,9-.16.88,2.9-2.38,2.55-3.26,4.37l4.94,1.37-3.83,2.68,2.68,1.73c-1.57,1.76-4.9,2.13-7,2a6.88,6.88,0,0,1-.18,2.39l-.71-2.58c-3.24-.78-3.67-5.57-7.21-6.34-2.36,4.84-2.64,11-8.91,12.94C609.27,224.35,605.68,222.42,603.39,218.36Z"/><path class="cls-39" d="M524.87,289.48c11.24-7.57,23.79-8.76,36.59-6.15,9.46,1.94,19.18,7.83,24.28,13.73,1.13,1.3.89,3.92.32,5.39h-1.88c-2.37-1.85-3.56-1.73-6.14-3.2-1.8-1-3.41-2.28-5.12-1.44A173.37,173.37,0,0,0,555,291.76c-7.66-3.69-15.68-3.81-23.86-2.39C529.12,289.73,526.89,291.2,524.87,289.48Z"/><path class="cls-31" d="M651,177.12c-12.42-25.42-23.24-6.88-34.35-1.77a3.55,3.55,0,0,1-4.34-1.15h0a3.9,3.9,0,0,1,0-4.56C617,163,628.89,158,638.14,159.41,646.66,160.74,650.06,166.66,651,177.12Z"/><path class="cls-6" d="M519,207.24c8.54-3.71,8.66-11.08,7.91-19.05,6.49,3.06,9.86,9.15,15,13.15,1.31,4.93-.34,7.95-5.68,7.83-5.93-.13-11.44,2.41-20.33.17a16.43,16.43,0,0,0-1.28-1.38A10,10,0,0,0,519,207.24Z"/><path class="cls-40" d="M529,288.35c5.62-.91,19.56-.69,28.21,2.78-2.81,2.78-7.21,1.35-10.39,1.05-4.72-.44-9.43-1.2-13.83.66-.6,2.46.84,3.55,1.94,4.69,5,5.23,9.88,10.71,16.87,13.55,1.5.61,3,1.41,3.56,3.21-3.62-.25-15-5.1-21-10.41-4.2-3.68-8.19-7.6-12.27-11.41a1.6,1.6,0,0,1,.89-2.09A25.21,25.21,0,0,1,529,288.35Z"/><path class="cls-36" d="M447.61,254.32v3c-6.62-3.79-6.95-7.86-1.54-22.19-1.67-2.47-6.63-10.08-6.63-10.08-2.42,2.46-4.09,6.84-5,11.3-1.34-5.11-.55-8.93,2.45-13.31-2.13-1.21-3.48.79-5.15.95a1.64,1.64,0,0,1-1.75-.87,2.17,2.17,0,0,1-.12-.55,2.22,2.22,0,0,1,1.55-2.13c4.75-1.71,8.95-1.16,12.14,3.36,3.68,5.21,7.14,10.39,3.49,17.27A13,13,0,0,0,447.61,254.32Z"/><path class="cls-6" d="M615.85,221.83c4.65-4.29,5-8.38,5.15-14.25,5.13,1.24,7.29,4.95,9,8.85,1.59,3.5,1,5.63-1.46,8.15l-5.47,1.22c-4.83,3.34-9.72,2.58-12.42-2.12A7,7,0,0,0,615.85,221.83Z"/><path class="cls-41" d="M530.72,314c11.57,12.25,23.82,15.4,38.18,10C557.63,334.78,538,329.63,530.72,314Z"/><path d="M516,209.34c8.64,1.82,14.06-.58,20.14-.17-15.25,7.2-32.62,1.83-35.6-8,1.5-1.06,3.81.74,4.82,1.68,1.29,1.18,3.24,3.77,3.72,4A38.47,38.47,0,0,0,516,209.34Z"/><path class="cls-42" d="M591.12,260.47c-2.09,3.21-5.58,5.06-11.54,6.37,10.4-6.44,11-13.74,3.56-23.09a12.64,12.64,0,0,1,7.68,5.62A10.07,10.07,0,0,1,591.12,260.47Z"/><path class="cls-43" d="M506.1,202.23c.37.68,3.83,5.22,8.58,5.73.44,0,.92.19,1.39.26.12,0,1.22,1.37-.11,1.12a30.68,30.68,0,0,1-14.4-7.2c-2.6-2.4-5.58-4.71-5.67-8.8,2.9-2.52,5.21-4.86,8.68-6.11C503.35,193.26,504.37,199,506.1,202.23Z"/><path class="cls-44" d="M444,266.06a6.08,6.08,0,0,1,4.74-1.1,1.76,1.76,0,0,1,.37.17c4.31,2.79,5.08,6.28,3.6,10.29a4.75,4.75,0,0,1-3.69,3,5.93,5.93,0,0,1-5.74-2.72c-1.74-3.29-2.4-6.22.49-9.42A2.5,2.5,0,0,1,444,266.06Z"/><path class="cls-38" d="M608.81,224.87a39.76,39.76,0,0,0,19.78-.29c-6.91,5.69-20.8,4.4-27.36-2.88A43.37,43.37,0,0,0,608.81,224.87Z"/><path class="cls-38" d="M603.21,195c-7.48,8.66-13.22,14.51-16.28,23.15C585.16,211.53,593.16,198.75,603.21,195Z"/><path class="cls-45" d="M550.41,245.81c-.52,1.79-1.1,3.32-1.63,4.72a8.86,8.86,0,0,0,.27,6.89,27.86,27.86,0,0,1,1.11,2.65c-3.86-.53-4.69-3.37-5-5.91C545.08,250.91,546.41,248,550.41,245.81Z"/><path class="cls-45" d="M567.45,260.13c-3.38.76-6.57-2.27-10.43.59,1.74-4.8,4.82-5.2,7.84-5.15a3.31,3.31,0,0,1,3.6,3.14A1.31,1.31,0,0,1,567.45,260.13Z"/><path class="cls-15" d="M514.48,166.1l5.36,11C515.27,174.53,514.36,172.15,514.48,166.1Z"/><path class="cls-46" d="M442,942.3c3.56.31,2.15,3.32,1.68,4.44-8.3,19.83-16.21,40-34.21,53.58-1.76,1.33-4.08,1.93-6.13,2.86C423.81,987.74,435.61,966.76,442,942.3Z"/><path class="cls-47" d="M732.66,996.24a381.68,381.68,0,0,1-16.19-47.11c-.75-2.72-1.26-5.14,1.42-7.06C722.63,961,727,980,736.06,997.31,733.47,998.91,733.06,997.57,732.66,996.24Z"/><path class="cls-48" d="M647.32,355.92c-1.67,5.78-4.76,9.3-9.41,11-5.14,1.83-10.28-.41-13.64-4.32a12.67,12.67,0,0,1-3.16-7.49,1.63,1.63,0,0,1,3-1C631.08,365.75,638.88,366.5,647.32,355.92Z"/><path class="cls-49" d="M624,477.87c9.31,19.37,19.56,36.41,34.23,50.53C640.89,531.94,623,506.24,624,477.87Z"/><path class="cls-50" d="M520.45,191.37c1.75,1.52,2.54.24,3.59.38a.54.54,0,0,1,.45.48c.84,6.54-4.79,11-7.62,11.81a3.43,3.43,0,0,1-2.28-.09l0,0a2.49,2.49,0,0,1,0-4.53c2.88-1.29,6-2.34,5-7.53A.53.53,0,0,1,520.45,191.37Z"/><path class="cls-51" d="M507.54,187.79c.92-1.9,3.25-2.57,5-2.57a5.32,5.32,0,0,1,1.49.32,2.15,2.15,0,0,1,.19,3.81c-2.41,1.53-3.06,4.2-3.43,7.13a1.28,1.28,0,0,1-2,.89C505.71,195.25,505.88,191.19,507.54,187.79Z"/><path class="cls-52" d="M555.37,314.29c-11.41-4.06-19.47-12-26.13-22.12,9.24-4.12,18.66-2.76,28-1A55.53,55.53,0,0,1,573.3,297c3.78,1.86,6,2.2,7.34,4-1.17,5.4-5,8.42-10.07,10.34C566,314.88,560.92,315.68,555.37,314.29Z"/><path class="cls-53" d="M568,313c4.06-2.33,10.2-6.29,12.41-11.39-.87-1.12-6.42-4.17-8.52-5.32,3.28,1.25,9.42,2.42,12.07,6C580.49,305.05,575.16,310.83,568,313Z"/><path class="cls-54" d="M610.18,217.11a4.94,4.94,0,0,0,4.19-2.33,15,15,0,0,1,1.54-2.2,1.29,1.29,0,0,1,2.18,1.26c-1.13,3.52-3.08,6.29-7.39,6.89-1.09.15-3.57,0-3.55-1.86a1.89,1.89,0,0,1,2-1.78Z"/><path class="cls-55" d="M607.92,215.37a1.28,1.28,0,0,1-1.57.55c-3.62-1.35-1.76-6.22-1.21-7.18,1.11-2,4.85-2,5.09-1.67C611.28,208.57,609,213.55,607.92,215.37Z"/><path class="cls-56" d="M446.42,266.68c3.56-.17,5.3,5.6,3.57,8a2.24,2.24,0,0,1-2,.84c-3.53-.17-4.88-5-3.09-7.93A1.89,1.89,0,0,1,446.42,266.68Z"/></g></g></g></svg>